# xmcd
# 
# Track frame offsets:
#     150
#     14254
#     31024
#     49549
#     61849
#     80082
#     96004
#     115552
#     131961
#     153586
#     173661
#     193778
#     213255
#     227584
#     252631
#     264272
#     288339
#     303366
#     320018
#     336045
# 
# Disc length: 4820
# 
# Revision: 2
# Processed by: cddbd v1.5.2PL0 Copyright (c) Steve Scherf et al.
# Submitted via: fre:ac v1.0.31
# 
DISCID=0f12d214
DTITLE=Various Artist - Jazz Legends
DYEAR=2004
DGENRE=Jazz
TTITLE0=Joe Williams with Count Basie - I'm Beginning To See The Light
TTITLE1=Billy Eckstine - Tenderly
TTITLE2=Buddy Rich - Between The Devil And The Deep Blue Sea
TTITLE3=Chet Baker - The Touch Of Your Lips
TTITLE4=Mel Tormé - Too Close For Comfort
TTITLE5=Count Basie - Evenin'
TTITLE6=Billie Holiday - Please Don't Talk About Me When I'm Gone
TTITLE7=Betty Carter and Carmen McRae - Stolen Moments (Aka You Belong To Her)
TTITLE8=Dinah Washington - Crazy He Calls Me
TTITLE9=Stan Getz and Astrud Gilberto - Only Trust Your Heart
TTITLE10=Betty Carter - My Favorite Things (Live)
TTITLE11=Nina Simone - Don't Explain
TTITLE12=Shirley Horn - Just In Time
TTITLE13=Erroll Garner - I'll Never Smile Again
TTITLE14=Dizzy Gillespie - Chelsea Bridge
TTITLE15=Coleman Hawkins and Ben Webster - Tangerine
TTITLE16=Benny Carter - Street Scene
TTITLE17=Wes Montgomery - It Was A Very Good Year
TTITLE18=Lester Young with The Oscar Peterson Trio - Can't Get Started
TTITLE19=Gerry Mulligan Sextet - In The Wee Small Hours Of The Morning
EXTD=YEAR: 2004
EXTT0=
EXTT1=
EXTT2=
EXTT3=
EXTT4=
EXTT5=
EXTT6=
EXTT7=
EXTT8=
EXTT9=
EXTT10=
EXTT11=
EXTT12=
EXTT13=
EXTT14=
EXTT15=
EXTT16=
EXTT17=
EXTT18=
EXTT19=
PLAYORDER=
